<?xml version="1.0" encoding="utf-8" standalone="no"?>
<!DOCTYPE svg PUBLIC "-//W3C//DTD SVG 1.1//EN"
  "http://www.w3.org/Graphics/SVG/1.1/DTD/svg11.dtd">
<svg xmlns:xlink="http://www.w3.org/1999/xlink" width="1080pt" height="432pt" viewBox="0 0 1080 432" xmlns="http://www.w3.org/2000/svg" version="1.1">
 <metadata>
  <rdf:RDF xmlns:dc="http://purl.org/dc/elements/1.1/" xmlns:cc="http://creativecommons.org/ns#" xmlns:rdf="http://www.w3.org/1999/02/22-rdf-syntax-ns#">
   <cc:Work>
    <dc:type rdf:resource="http://purl.org/dc/dcmitype/StillImage"/>
    <dc:date>2024-03-22T22:29:56.323558</dc:date>
    <dc:format>image/svg+xml</dc:format>
    <dc:creator>
     <cc:Agent>
      <dc:title>Matplotlib v3.7.0, https://matplotlib.org/</dc:title>
     </cc:Agent>
    </dc:creator>
   </cc:Work>
  </rdf:RDF>
 </metadata>
 <defs>
  <style type="text/css">*{stroke-linejoin: round; stroke-linecap: butt}</style>
 </defs>
 <g id="figure_1">
  <g id="patch_1">
   <path d="M 0 432 
L 1080 432 
L 1080 0 
L 0 0 
z
" style="fill: #ffffff"/>
  </g>
  <g id="axes_1">
   <g id="patch_2">
    <path d="M 72.83 367 
L 1060.56 367 
L 1060.56 19.44 
L 72.83 19.44 
z
" style="fill: #ffffff"/>
   </g>
   <g id="PolyCollection_1">
    <defs>
     <path id="md625fe5082" d="M 1015.663182 -199.918162 
L 1015.663182 -158.521857 
L 998.395175 -231.176597 
L 981.127168 -178.375187 
L 955.225157 -186.823413 
L 946.591154 -227.797307 
L 920.689143 -227.797307 
L 912.05514 -86.289528 
L 894.787133 -251.029927 
L 877.519126 -157.254623 
L 868.885122 -147.116753 
L 842.983112 -111.211794 
L 825.715105 -208.366388 
L 765.27708 -187.245824 
L 765.27708 -197.383695 
L 739.37507 -125.151366 
L 713.473059 -142.470228 
L 696.205052 -158.944268 
L 687.571049 -206.254332 
L 653.035035 -120.927253 
L 592.59701 -124.728955 
L 583.963007 -80.798182 
L 575.329003 -173.728663 
L 566.695 -111.211794 
L 558.060997 -128.953068 
L 532.158986 -160.633913 
L 342.210909 -193.581993 
L 342.210909 -188.513058 
L 299.040892 -201.607807 
L 221.33486 -195.271638 
L 117.726818 -161.056325 
L 117.726818 -197.383695 
L 117.726818 -197.383695 
L 221.33486 -232.443831 
L 299.040892 -238.78 
L 342.210909 -229.064541 
L 342.210909 -229.909363 
L 532.158986 -207.099154 
L 558.060997 -181.332066 
L 566.695 -162.74597 
L 575.329003 -223.573194 
L 583.963007 -127.263422 
L 592.59701 -175.418308 
L 653.035035 -172.461429 
L 687.571049 -257.788508 
L 696.205052 -210.478444 
L 713.473059 -194.849227 
L 739.37507 -168.237316 
L 765.27708 -239.624823 
L 765.27708 -232.02142 
L 825.715105 -250.607516 
L 842.983112 -153.452922 
L 868.885122 -191.892348 
L 877.519126 -201.185396 
L 894.787133 -294.9607 
L 912.05514 -125.996189 
L 920.689143 -267.503967 
L 946.591154 -267.503967 
L 955.225157 -225.68525 
L 981.127168 -217.237025 
L 998.395175 -272.572902 
L 1015.663182 -199.918162 
z
" style="stroke: #054573; stroke-opacity: 0.2"/>
    </defs>
    <g clip-path="url(#p03f45fa23f)">
     <use xlink:href="#md625fe5082" x="0" y="432" style="fill: #054573; fill-opacity: 0.2; stroke: #054573; stroke-opacity: 0.2"/>
    </g>
   </g>
   <g id="PolyCollection_2">
    <defs>
     <path id="md121462722" d="M 1015.663182 -118.392786 
L 1015.663182 -107.410092 
L 998.395175 -109.099737 
L 981.127168 -120.504842 
L 955.225157 -130.642713 
L 946.591154 -109.522149 
L 920.689143 -131.909947 
L 912.05514 -134.022003 
L 894.787133 -143.737462 
L 877.519126 -136.556471 
L 868.885122 -157.254623 
L 842.983112 -119.237608 
L 825.715105 -135.711648 
L 765.27708 -125.573777 
L 765.27708 -127.263422 
L 739.37507 -119.237608 
L 713.473059 -120.082431 
L 696.205052 -120.504842 
L 687.571049 -125.996189 
L 653.035035 -149.228809 
L 592.59701 -121.349665 
L 583.963007 -127.685834 
L 575.329003 -131.487535 
L 566.695 -115.013495 
L 558.060997 -118.815197 
L 532.158986 -136.134059 
L 342.210909 -136.134059 
L 342.210909 -136.556471 
L 299.040892 -134.866825 
L 221.33486 -156.409801 
L 117.726818 -142.89264 
L 117.726818 -148.806398 
L 117.726818 -148.806398 
L 221.33486 -160.633913 
L 299.040892 -141.625406 
L 342.210909 -142.470228 
L 342.210909 -142.047817 
L 532.158986 -143.737462 
L 558.060997 -129.79789 
L 566.695 -125.996189 
L 575.329003 -141.625406 
L 583.963007 -138.668527 
L 592.59701 -132.332358 
L 653.035035 -159.36668 
L 687.571049 -136.134059 
L 696.205052 -130.642713 
L 713.473059 -130.220301 
L 739.37507 -128.530656 
L 765.27708 -136.556471 
L 765.27708 -134.022003 
L 825.715105 -140.780583 
L 842.983112 -130.220301 
L 868.885122 -164.013204 
L 877.519126 -145.849519 
L 894.787133 -153.875333 
L 912.05514 -141.625406 
L 920.689143 -142.89264 
L 946.591154 -120.504842 
L 955.225157 -141.625406 
L 981.127168 -131.487535 
L 998.395175 -120.082431 
L 1015.663182 -118.392786 
z
" style="stroke: #b5b5b5; stroke-opacity: 0.2"/>
    </defs>
    <g clip-path="url(#p03f45fa23f)">
     <use xlink:href="#md121462722" x="0" y="432" style="fill: #b5b5b5; fill-opacity: 0.2; stroke: #b5b5b5; stroke-opacity: 0.2"/>
    </g>
   </g>
   <g id="PolyCollection_3">
    <defs>
     <path id="mdf3bf743f0" d="M 1015.663182 -338.891473 
L 1015.663182 -300.029635 
L 998.395175 -225.68525 
L 981.127168 -269.616023 
L 955.225157 -251.029927 
L 946.591154 -230.331774 
L 920.689143 -207.099154 
L 912.05514 -348.184521 
L 894.787133 -167.814905 
L 877.519126 -268.348789 
L 868.885122 -258.63333 
L 842.983112 -331.28807 
L 825.715105 -222.728371 
L 765.27708 -249.340282 
L 765.27708 -239.202411 
L 739.37507 -318.615732 
L 713.473059 -290.736587 
L 696.205052 -275.529781 
L 687.571049 -223.150783 
L 653.035035 -285.667652 
L 592.59701 -310.167506 
L 583.963007 -352.831045 
L 575.329003 -252.719572 
L 566.695 -330.020836 
L 558.060997 -307.633038 
L 532.158986 -265.391911 
L 342.210909 -242.581702 
L 342.210909 -243.004113 
L 299.040892 -234.978298 
L 221.33486 -220.616315 
L 117.726818 -268.771201 
L 117.726818 -304.253748 
L 117.726818 -304.253748 
L 221.33486 -257.788508 
L 299.040892 -271.305668 
L 342.210909 -283.555596 
L 342.210909 -278.909071 
L 532.158986 -310.167506 
L 558.060997 -356.632747 
L 566.695 -378.175722 
L 575.329003 -300.029635 
L 583.963007 -396.761818 
L 592.59701 -359.167214 
L 653.035035 -335.512183 
L 687.571049 -273.840136 
L 696.205052 -327.063957 
L 713.473059 -343.960408 
L 739.37507 -363.391327 
L 765.27708 -283.133184 
L 765.27708 -294.9607 
L 825.715105 -264.969499 
L 842.983112 -376.908488 
L 868.885122 -304.253748 
L 877.519126 -313.969208 
L 894.787133 -212.590501 
L 912.05514 -387.891181 
L 920.689143 -245.960992 
L 946.591154 -267.503967 
L 955.225157 -287.357297 
L 981.127168 -305.943393 
L 998.395175 -264.547088 
L 1015.663182 -338.891473 
z
" style="stroke: #c01511; stroke-opacity: 0.2"/>
    </defs>
    <g clip-path="url(#p03f45fa23f)">
     <use xlink:href="#mdf3bf743f0" x="0" y="432" style="fill: #c01511; fill-opacity: 0.2; stroke: #c01511; stroke-opacity: 0.2"/>
    </g>
   </g>
   <g id="matplotlib.axis_1">
    <g id="xtick_1">
     <g id="line2d_1">
      <defs>
       <path id="mfba374a601" d="M 0 0 
L 0 3.5 
" style="stroke: #000000; stroke-width: 0.8"/>
      </defs>
      <g>
       <use xlink:href="#mfba374a601" x="169.530839" y="367" style="stroke: #000000; stroke-width: 0.8"/>
      </g>
     </g>
     <g id="text_1">
      <!-- 1920 -->
      <g transform="translate(149.877089 387.677187) scale(0.18 -0.18)">
       <defs>
        <path id="Tahoma-31" d="M 2975 0 
L 706 0 
L 706 475 
L 1550 475 
L 1550 3594 
L 706 3594 
L 706 4019 
Q 1184 4019 1411 4155 
Q 1638 4291 1666 4669 
L 2150 4669 
L 2150 475 
L 2975 475 
L 2975 0 
z
" transform="scale(0.015625)"/>
        <path id="Tahoma-39" d="M 2600 2741 
Q 2600 3216 2512 3514 
Q 2425 3813 2272 3975 
Q 2134 4125 1993 4181 
Q 1853 4238 1684 4238 
Q 1300 4238 1072 3963 
Q 844 3688 844 3166 
Q 844 2872 919 2681 
Q 994 2491 1163 2353 
Q 1281 2256 1431 2223 
Q 1581 2191 1753 2191 
Q 1953 2191 2184 2261 
Q 2416 2331 2588 2447 
Q 2591 2494 2595 2570 
Q 2600 2647 2600 2741 
z
M 209 3141 
Q 209 3500 326 3797 
Q 444 4094 647 4309 
Q 841 4516 1120 4631 
Q 1400 4747 1688 4747 
Q 2009 4747 2270 4639 
Q 2531 4531 2722 4328 
Q 2963 4072 3095 3656 
Q 3228 3241 3228 2606 
Q 3228 2028 3098 1511 
Q 2969 994 2716 653 
Q 2447 291 2070 100 
Q 1694 -91 1141 -91 
Q 1016 -91 875 -77 
Q 734 -63 613 -25 
L 613 572 
L 644 572 
Q 722 528 887 487 
Q 1053 447 1225 447 
Q 1838 447 2188 850 
Q 2538 1253 2584 2003 
Q 2334 1834 2107 1756 
Q 1881 1678 1616 1678 
Q 1356 1678 1143 1734 
Q 931 1791 716 1953 
Q 466 2144 337 2436 
Q 209 2728 209 3141 
z
" transform="scale(0.015625)"/>
        <path id="Tahoma-32" d="M 3213 0 
L 341 0 
L 341 653 
Q 650 947 925 1215 
Q 1200 1484 1463 1775 
Q 1994 2359 2187 2711 
Q 2381 3063 2381 3438 
Q 2381 3631 2320 3778 
Q 2259 3925 2153 4022 
Q 2044 4116 1900 4162 
Q 1756 4209 1584 4209 
Q 1419 4209 1248 4167 
Q 1078 4125 922 4063 
Q 791 4009 669 3934 
Q 547 3859 472 3806 
L 438 3806 
L 438 4469 
Q 631 4566 976 4658 
Q 1322 4750 1631 4750 
Q 2281 4750 2650 4404 
Q 3019 4059 3019 3469 
Q 3019 3197 2955 2965 
Q 2891 2734 2778 2538 
Q 2663 2334 2500 2134 
Q 2338 1934 2156 1741 
Q 1863 1422 1502 1078 
Q 1141 734 925 534 
L 3213 534 
L 3213 0 
z
" transform="scale(0.015625)"/>
        <path id="Tahoma-30" d="M 3234 2328 
Q 3234 1075 2870 489 
Q 2506 -97 1747 -97 
Q 978 -97 618 500 
Q 259 1097 259 2322 
Q 259 3581 623 4164 
Q 988 4747 1747 4747 
Q 2516 4747 2875 4144 
Q 3234 3541 3234 2328 
z
M 2434 909 
Q 2525 1141 2562 1494 
Q 2600 1847 2600 2328 
Q 2600 2806 2562 3159 
Q 2525 3513 2431 3747 
Q 2338 3984 2173 4107 
Q 2009 4231 1747 4231 
Q 1488 4231 1320 4107 
Q 1153 3984 1056 3741 
Q 963 3503 928 3140 
Q 894 2778 894 2322 
Q 894 1834 923 1506 
Q 953 1178 1053 919 
Q 1144 678 1311 548 
Q 1478 419 1747 419 
Q 2006 419 2173 542 
Q 2341 666 2434 909 
z
" transform="scale(0.015625)"/>
       </defs>
       <use xlink:href="#Tahoma-31"/>
       <use xlink:href="#Tahoma-39" x="54.589844"/>
       <use xlink:href="#Tahoma-32" x="109.179688"/>
       <use xlink:href="#Tahoma-30" x="163.769531"/>
      </g>
     </g>
    </g>
    <g id="xtick_2">
     <g id="line2d_2">
      <g>
       <use xlink:href="#mfba374a601" x="342.210909" y="367" style="stroke: #000000; stroke-width: 0.8"/>
      </g>
     </g>
     <g id="text_2">
      <!-- 1940 -->
      <g transform="translate(322.557159 387.677187) scale(0.18 -0.18)">
       <defs>
        <path id="Tahoma-34" d="M 3334 1600 
L 2781 1600 
L 2781 0 
L 2181 0 
L 2181 1600 
L 125 1600 
L 125 2256 
L 2206 4653 
L 2781 4653 
L 2781 2100 
L 3334 2100 
L 3334 1600 
z
M 2181 2100 
L 2181 3919 
L 613 2100 
L 2181 2100 
z
" transform="scale(0.015625)"/>
       </defs>
       <use xlink:href="#Tahoma-31"/>
       <use xlink:href="#Tahoma-39" x="54.589844"/>
       <use xlink:href="#Tahoma-34" x="109.179688"/>
       <use xlink:href="#Tahoma-30" x="163.769531"/>
      </g>
     </g>
    </g>
    <g id="xtick_3">
     <g id="line2d_3">
      <g>
       <use xlink:href="#mfba374a601" x="514.890979" y="367" style="stroke: #000000; stroke-width: 0.8"/>
      </g>
     </g>
     <g id="text_3">
      <!-- 1960 -->
      <g transform="translate(495.237229 387.677187) scale(0.18 -0.18)">
       <defs>
        <path id="Tahoma-36" d="M 3284 1509 
Q 3284 1150 3165 847 
Q 3047 544 2847 341 
Q 2638 125 2378 14 
Q 2119 -97 1806 -97 
Q 1491 -97 1233 9 
Q 975 116 778 325 
Q 538 578 402 1001 
Q 266 1425 266 2044 
Q 266 2650 391 3139 
Q 516 3628 775 3991 
Q 1028 4344 1428 4542 
Q 1828 4741 2353 4741 
Q 2509 4741 2643 4725 
Q 2778 4709 2881 4675 
L 2881 4078 
L 2853 4078 
Q 2769 4125 2609 4164 
Q 2450 4203 2269 4203 
Q 1688 4203 1330 3811 
Q 972 3419 906 2647 
Q 1128 2803 1362 2887 
Q 1597 2972 1875 2972 
Q 2147 2972 2351 2917 
Q 2556 2863 2778 2697 
Q 3034 2503 3159 2206 
Q 3284 1909 3284 1509 
z
M 2650 1484 
Q 2650 1772 2575 1965 
Q 2500 2159 2331 2297 
Q 2209 2397 2054 2428 
Q 1900 2459 1738 2459 
Q 1519 2459 1312 2393 
Q 1106 2328 906 2203 
Q 900 2134 897 2070 
Q 894 2006 894 1909 
Q 894 1425 989 1128 
Q 1084 831 1225 678 
Q 1359 531 1501 472 
Q 1644 413 1809 413 
Q 2184 413 2417 681 
Q 2650 950 2650 1484 
z
" transform="scale(0.015625)"/>
       </defs>
       <use xlink:href="#Tahoma-31"/>
       <use xlink:href="#Tahoma-39" x="54.589844"/>
       <use xlink:href="#Tahoma-36" x="109.179688"/>
       <use xlink:href="#Tahoma-30" x="163.769531"/>
      </g>
     </g>
    </g>
    <g id="xtick_4">
     <g id="line2d_4">
      <g>
       <use xlink:href="#mfba374a601" x="687.571049" y="367" style="stroke: #000000; stroke-width: 0.8"/>
      </g>
     </g>
     <g id="text_4">
      <!-- 1980 -->
      <g transform="translate(667.917299 387.677187) scale(0.18 -0.18)">
       <defs>
        <path id="Tahoma-38" d="M 2534 3569 
Q 2534 3881 2325 4090 
Q 2116 4300 1744 4300 
Q 1403 4300 1186 4112 
Q 969 3925 969 3606 
Q 969 3375 1080 3215 
Q 1191 3056 1413 2928 
Q 1509 2875 1707 2781 
Q 1906 2688 2069 2634 
Q 2341 2844 2437 3064 
Q 2534 3284 2534 3569 
z
M 2622 1238 
Q 2622 1525 2509 1694 
Q 2397 1863 2075 2038 
Q 1969 2097 1792 2165 
Q 1616 2234 1394 2328 
Q 1134 2156 996 1904 
Q 859 1653 859 1331 
Q 859 909 1114 634 
Q 1369 359 1753 359 
Q 2147 359 2384 595 
Q 2622 831 2622 1238 
z
M 1747 -106 
Q 1400 -106 1115 -3 
Q 831 100 631 294 
Q 434 481 332 739 
Q 231 997 231 1284 
Q 231 1663 432 1980 
Q 634 2297 1019 2484 
L 1019 2503 
Q 675 2703 509 2940 
Q 344 3178 344 3534 
Q 344 4059 741 4409 
Q 1138 4759 1747 4759 
Q 2381 4759 2764 4426 
Q 3147 4094 3147 3575 
Q 3147 3263 2964 2956 
Q 2781 2650 2438 2478 
L 2438 2459 
Q 2844 2269 3053 1997 
Q 3263 1725 3263 1297 
Q 3263 700 2830 297 
Q 2397 -106 1747 -106 
z
" transform="scale(0.015625)"/>
       </defs>
       <use xlink:href="#Tahoma-31"/>
       <use xlink:href="#Tahoma-39" x="54.589844"/>
       <use xlink:href="#Tahoma-38" x="109.179688"/>
       <use xlink:href="#Tahoma-30" x="163.769531"/>
      </g>
     </g>
    </g>
    <g id="xtick_5">
     <g id="line2d_5">
      <g>
       <use xlink:href="#mfba374a601" x="860.251119" y="367" style="stroke: #000000; stroke-width: 0.8"/>
      </g>
     </g>
     <g id="text_5">
      <!-- 2000 -->
      <g transform="translate(840.597369 387.677187) scale(0.18 -0.18)">
       <use xlink:href="#Tahoma-32"/>
       <use xlink:href="#Tahoma-30" x="54.589844"/>
       <use xlink:href="#Tahoma-30" x="109.179688"/>
       <use xlink:href="#Tahoma-30" x="163.769531"/>
      </g>
     </g>
    </g>
    <g id="xtick_6">
     <g id="line2d_6">
      <g>
       <use xlink:href="#mfba374a601" x="1032.931189" y="367" style="stroke: #000000; stroke-width: 0.8"/>
      </g>
     </g>
     <g id="text_6">
      <!-- 2020 -->
      <g transform="translate(1013.277439 387.677187) scale(0.18 -0.18)">
       <use xlink:href="#Tahoma-32"/>
       <use xlink:href="#Tahoma-30" x="54.589844"/>
       <use xlink:href="#Tahoma-32" x="109.179688"/>
       <use xlink:href="#Tahoma-30" x="163.769531"/>
      </g>
     </g>
    </g>
    <g id="xtick_7">
     <g id="line2d_7">
      <defs>
       <path id="mbc13062d0c" d="M 0 0 
L 0 2 
" style="stroke: #000000; stroke-width: 0.6"/>
      </defs>
      <g>
       <use xlink:href="#mbc13062d0c" x="83.190804" y="367" style="stroke: #000000; stroke-width: 0.6"/>
      </g>
     </g>
    </g>
    <g id="xtick_8">
     <g id="line2d_8">
      <g>
       <use xlink:href="#mbc13062d0c" x="126.360822" y="367" style="stroke: #000000; stroke-width: 0.6"/>
      </g>
     </g>
    </g>
    <g id="xtick_9">
     <g id="line2d_9">
      <g>
       <use xlink:href="#mbc13062d0c" x="212.700857" y="367" style="stroke: #000000; stroke-width: 0.6"/>
      </g>
     </g>
    </g>
    <g id="xtick_10">
     <g id="line2d_10">
      <g>
       <use xlink:href="#mbc13062d0c" x="255.870874" y="367" style="stroke: #000000; stroke-width: 0.6"/>
      </g>
     </g>
    </g>
    <g id="xtick_11">
     <g id="line2d_11">
      <g>
       <use xlink:href="#mbc13062d0c" x="299.040892" y="367" style="stroke: #000000; stroke-width: 0.6"/>
      </g>
     </g>
    </g>
    <g id="xtick_12">
     <g id="line2d_12">
      <g>
       <use xlink:href="#mbc13062d0c" x="385.380927" y="367" style="stroke: #000000; stroke-width: 0.6"/>
      </g>
     </g>
    </g>
    <g id="xtick_13">
     <g id="line2d_13">
      <g>
       <use xlink:href="#mbc13062d0c" x="428.550944" y="367" style="stroke: #000000; stroke-width: 0.6"/>
      </g>
     </g>
    </g>
    <g id="xtick_14">
     <g id="line2d_14">
      <g>
       <use xlink:href="#mbc13062d0c" x="471.720962" y="367" style="stroke: #000000; stroke-width: 0.6"/>
      </g>
     </g>
    </g>
    <g id="xtick_15">
     <g id="line2d_15">
      <g>
       <use xlink:href="#mbc13062d0c" x="558.060997" y="367" style="stroke: #000000; stroke-width: 0.6"/>
      </g>
     </g>
    </g>
    <g id="xtick_16">
     <g id="line2d_16">
      <g>
       <use xlink:href="#mbc13062d0c" x="601.231014" y="367" style="stroke: #000000; stroke-width: 0.6"/>
      </g>
     </g>
    </g>
    <g id="xtick_17">
     <g id="line2d_17">
      <g>
       <use xlink:href="#mbc13062d0c" x="644.401031" y="367" style="stroke: #000000; stroke-width: 0.6"/>
      </g>
     </g>
    </g>
    <g id="xtick_18">
     <g id="line2d_18">
      <g>
       <use xlink:href="#mbc13062d0c" x="730.741066" y="367" style="stroke: #000000; stroke-width: 0.6"/>
      </g>
     </g>
    </g>
    <g id="xtick_19">
     <g id="line2d_19">
      <g>
       <use xlink:href="#mbc13062d0c" x="773.911084" y="367" style="stroke: #000000; stroke-width: 0.6"/>
      </g>
     </g>
    </g>
    <g id="xtick_20">
     <g id="line2d_20">
      <g>
       <use xlink:href="#mbc13062d0c" x="817.081101" y="367" style="stroke: #000000; stroke-width: 0.6"/>
      </g>
     </g>
    </g>
    <g id="xtick_21">
     <g id="line2d_21">
      <g>
       <use xlink:href="#mbc13062d0c" x="903.421136" y="367" style="stroke: #000000; stroke-width: 0.6"/>
      </g>
     </g>
    </g>
    <g id="xtick_22">
     <g id="line2d_22">
      <g>
       <use xlink:href="#mbc13062d0c" x="946.591154" y="367" style="stroke: #000000; stroke-width: 0.6"/>
      </g>
     </g>
    </g>
    <g id="xtick_23">
     <g id="line2d_23">
      <g>
       <use xlink:href="#mbc13062d0c" x="989.761171" y="367" style="stroke: #000000; stroke-width: 0.6"/>
      </g>
     </g>
    </g>
    <g id="text_7">
     <!-- Year -->
     <g transform="translate(549.344687 408.976875) scale(0.18 -0.18)">
      <defs>
       <path id="Tahoma-59" d="M 3728 4653 
L 2156 2059 
L 2156 0 
L 1538 0 
L 1538 1994 
L -34 4653 
L 653 4653 
L 1853 2600 
L 3072 4653 
L 3728 4653 
z
" transform="scale(0.015625)"/>
       <path id="Tahoma-65" d="M 1941 -81 
Q 1106 -81 645 389 
Q 184 859 184 1725 
Q 184 2578 631 3083 
Q 1078 3588 1800 3588 
Q 2125 3588 2375 3494 
Q 2625 3400 2813 3200 
Q 3000 3000 3100 2711 
Q 3200 2422 3200 2003 
L 3200 1684 
L 781 1684 
Q 781 1075 1087 753 
Q 1394 431 1934 431 
Q 2128 431 2314 475 
Q 2500 519 2650 588 
Q 2809 659 2918 726 
Q 3028 794 3100 853 
L 3134 853 
L 3134 213 
Q 3031 172 2878 111 
Q 2725 50 2603 16 
Q 2431 -31 2292 -56 
Q 2153 -81 1941 -81 
z
M 2628 2134 
Q 2622 2372 2572 2544 
Q 2522 2716 2428 2834 
Q 2325 2966 2164 3034 
Q 2003 3103 1766 3103 
Q 1531 3103 1367 3033 
Q 1203 2963 1069 2828 
Q 938 2691 869 2523 
Q 800 2356 781 2134 
L 2628 2134 
z
" transform="scale(0.015625)"/>
       <path id="Tahoma-61" d="M 2375 859 
L 2375 1828 
Q 2166 1809 1845 1776 
Q 1525 1744 1328 1684 
Q 1094 1613 941 1464 
Q 788 1316 788 1050 
Q 788 750 956 597 
Q 1125 444 1450 444 
Q 1728 444 1953 564 
Q 2178 684 2375 859 
z
M 2375 372 
Q 2303 319 2183 223 
Q 2063 128 1950 72 
Q 1794 -9 1648 -53 
Q 1503 -97 1241 -97 
Q 1025 -97 831 -15 
Q 638 66 491 213 
Q 350 356 265 567 
Q 181 778 181 1013 
Q 181 1375 334 1629 
Q 488 1884 819 2034 
Q 1113 2169 1513 2220 
Q 1913 2272 2375 2297 
L 2375 2409 
Q 2375 2616 2312 2742 
Q 2250 2869 2138 2938 
Q 2025 3009 1862 3032 
Q 1700 3056 1528 3056 
Q 1325 3056 1050 2995 
Q 775 2934 500 2819 
L 466 2819 
L 466 3416 
Q 628 3463 931 3519 
Q 1234 3575 1531 3575 
Q 1891 3575 2137 3519 
Q 2384 3463 2581 3316 
Q 2772 3172 2865 2944 
Q 2959 2716 2959 2388 
L 2959 0 
L 2375 0 
L 2375 372 
z
" transform="scale(0.015625)"/>
       <path id="Tahoma-72" d="M 2275 2859 
L 2244 2859 
Q 2178 2878 2104 2883 
Q 2031 2888 1928 2888 
Q 1691 2888 1456 2784 
Q 1222 2681 1013 2478 
L 1013 0 
L 425 0 
L 425 3491 
L 1013 3491 
L 1013 2972 
Q 1334 3256 1573 3373 
Q 1813 3491 2038 3491 
Q 2128 3491 2173 3486 
Q 2219 3481 2275 3472 
L 2275 2859 
z
" transform="scale(0.015625)"/>
      </defs>
      <use xlink:href="#Tahoma-59"/>
      <use xlink:href="#Tahoma-65" x="51.617188"/>
      <use xlink:href="#Tahoma-61" x="104.253906"/>
      <use xlink:href="#Tahoma-72" x="156.744141"/>
     </g>
    </g>
   </g>
   <g id="matplotlib.axis_2">
    <g id="ytick_1">
     <g id="line2d_24">
      <defs>
       <path id="m6de02fa9b9" d="M 0 0 
L -3.5 0 
" style="stroke: #000000; stroke-width: 0.8"/>
      </defs>
      <g>
       <use xlink:href="#m6de02fa9b9" x="72.83" y="326.701964" style="stroke: #000000; stroke-width: 0.8"/>
      </g>
     </g>
     <g id="text_8">
      <!-- 0.1 -->
      <g transform="translate(40.725625 333.540558) scale(0.18 -0.18)">
       <defs>
        <path id="Tahoma-2e" d="M 1341 0 
L 594 0 
L 594 891 
L 1341 891 
L 1341 0 
z
" transform="scale(0.015625)"/>
       </defs>
       <use xlink:href="#Tahoma-30"/>
       <use xlink:href="#Tahoma-2e" x="54.589844"/>
       <use xlink:href="#Tahoma-31" x="84.863281"/>
      </g>
     </g>
    </g>
    <g id="ytick_2">
     <g id="line2d_25">
      <g>
       <use xlink:href="#m6de02fa9b9" x="72.83" y="284.460836" style="stroke: #000000; stroke-width: 0.8"/>
      </g>
     </g>
     <g id="text_9">
      <!-- 0.2 -->
      <g transform="translate(40.725625 291.29943) scale(0.18 -0.18)">
       <use xlink:href="#Tahoma-30"/>
       <use xlink:href="#Tahoma-2e" x="54.589844"/>
       <use xlink:href="#Tahoma-32" x="84.863281"/>
      </g>
     </g>
    </g>
    <g id="ytick_3">
     <g id="line2d_26">
      <g>
       <use xlink:href="#m6de02fa9b9" x="72.83" y="242.219708" style="stroke: #000000; stroke-width: 0.8"/>
      </g>
     </g>
     <g id="text_10">
      <!-- 0.3 -->
      <g transform="translate(40.725625 249.058302) scale(0.18 -0.18)">
       <defs>
        <path id="Tahoma-33" d="M 1597 4209 
Q 1428 4209 1259 4168 
Q 1091 4128 928 4063 
Q 778 4000 667 3931 
Q 556 3863 469 3803 
L 431 3803 
L 431 4463 
Q 634 4572 982 4661 
Q 1331 4750 1647 4750 
Q 1963 4750 2198 4686 
Q 2434 4622 2625 4488 
Q 2831 4338 2936 4125 
Q 3041 3913 3041 3628 
Q 3041 3244 2787 2953 
Q 2534 2663 2181 2584 
L 2181 2541 
Q 2328 2513 2495 2444 
Q 2663 2375 2806 2241 
Q 2950 2106 3040 1895 
Q 3131 1684 3131 1381 
Q 3131 1066 3023 802 
Q 2916 538 2719 334 
Q 2516 122 2228 12 
Q 1941 -97 1575 -97 
Q 1225 -97 881 -12 
Q 538 72 303 191 
L 303 850 
L 347 850 
Q 544 706 875 575 
Q 1206 444 1538 444 
Q 1728 444 1920 505 
Q 2113 566 2241 703 
Q 2366 841 2431 1006 
Q 2497 1172 2497 1425 
Q 2497 1678 2423 1840 
Q 2350 2003 2219 2097 
Q 2088 2191 1908 2227 
Q 1728 2263 1519 2263 
L 1253 2263 
L 1253 2781 
L 1459 2781 
Q 1881 2781 2145 2981 
Q 2409 3181 2409 3563 
Q 2409 3738 2340 3864 
Q 2272 3991 2166 4066 
Q 2047 4147 1903 4178 
Q 1759 4209 1597 4209 
z
" transform="scale(0.015625)"/>
       </defs>
       <use xlink:href="#Tahoma-30"/>
       <use xlink:href="#Tahoma-2e" x="54.589844"/>
       <use xlink:href="#Tahoma-33" x="84.863281"/>
      </g>
     </g>
    </g>
    <g id="ytick_4">
     <g id="line2d_27">
      <g>
       <use xlink:href="#m6de02fa9b9" x="72.83" y="199.97858" style="stroke: #000000; stroke-width: 0.8"/>
      </g>
     </g>
     <g id="text_11">
      <!-- 0.4 -->
      <g transform="translate(40.725625 206.817174) scale(0.18 -0.18)">
       <use xlink:href="#Tahoma-30"/>
       <use xlink:href="#Tahoma-2e" x="54.589844"/>
       <use xlink:href="#Tahoma-34" x="84.863281"/>
      </g>
     </g>
    </g>
    <g id="ytick_5">
     <g id="line2d_28">
      <g>
       <use xlink:href="#m6de02fa9b9" x="72.83" y="157.737453" style="stroke: #000000; stroke-width: 0.8"/>
      </g>
     </g>
     <g id="text_12">
      <!-- 0.5 -->
      <g transform="translate(40.725625 164.576046) scale(0.18 -0.18)">
       <defs>
        <path id="Tahoma-35" d="M 3159 1481 
Q 3159 1144 3051 856 
Q 2944 569 2750 359 
Q 2553 147 2261 25 
Q 1969 -97 1606 -97 
Q 1272 -97 948 -23 
Q 625 50 388 169 
L 388 828 
L 431 828 
Q 503 775 637 708 
Q 772 641 934 581 
Q 1119 516 1272 480 
Q 1425 444 1616 444 
Q 1803 444 1981 511 
Q 2159 578 2288 728 
Q 2403 866 2464 1050 
Q 2525 1234 2525 1484 
Q 2525 1731 2458 1890 
Q 2391 2050 2263 2153 
Q 2128 2272 1933 2320 
Q 1738 2369 1497 2369 
Q 1244 2369 987 2330 
Q 731 2291 578 2256 
L 578 4653 
L 3131 4653 
L 3131 4106 
L 1181 4106 
L 1181 2869 
Q 1294 2881 1403 2887 
Q 1513 2894 1603 2894 
Q 1959 2894 2206 2834 
Q 2453 2775 2681 2603 
Q 2913 2428 3036 2165 
Q 3159 1903 3159 1481 
z
" transform="scale(0.015625)"/>
       </defs>
       <use xlink:href="#Tahoma-30"/>
       <use xlink:href="#Tahoma-2e" x="54.589844"/>
       <use xlink:href="#Tahoma-35" x="84.863281"/>
      </g>
     </g>
    </g>
    <g id="ytick_6">
     <g id="line2d_29">
      <g>
       <use xlink:href="#m6de02fa9b9" x="72.83" y="115.496325" style="stroke: #000000; stroke-width: 0.8"/>
      </g>
     </g>
     <g id="text_13">
      <!-- 0.6 -->
      <g transform="translate(40.725625 122.334918) scale(0.18 -0.18)">
       <use xlink:href="#Tahoma-30"/>
       <use xlink:href="#Tahoma-2e" x="54.589844"/>
       <use xlink:href="#Tahoma-36" x="84.863281"/>
      </g>
     </g>
    </g>
    <g id="ytick_7">
     <g id="line2d_30">
      <g>
       <use xlink:href="#m6de02fa9b9" x="72.83" y="73.255197" style="stroke: #000000; stroke-width: 0.8"/>
      </g>
     </g>
     <g id="text_14">
      <!-- 0.7 -->
      <g transform="translate(41.153125 80.093791) scale(0.18 -0.18)">
       <defs>
        <path id="Tahoma-37" d="M 3263 3956 
L 1250 0 
L 584 0 
L 2716 4106 
L 309 4106 
L 309 4653 
L 3263 4653 
L 3263 3956 
z
" transform="scale(0.015625)"/>
       </defs>
       <use xlink:href="#Tahoma-30"/>
       <use xlink:href="#Tahoma-2e" x="54.589844"/>
       <use xlink:href="#Tahoma-37" x="82.488281"/>
      </g>
     </g>
    </g>
    <g id="ytick_8">
     <g id="line2d_31">
      <g>
       <use xlink:href="#m6de02fa9b9" x="72.83" y="31.014069" style="stroke: #000000; stroke-width: 0.8"/>
      </g>
     </g>
     <g id="text_15">
      <!-- 0.8 -->
      <g transform="translate(40.725625 37.852663) scale(0.18 -0.18)">
       <use xlink:href="#Tahoma-30"/>
       <use xlink:href="#Tahoma-2e" x="54.589844"/>
       <use xlink:href="#Tahoma-38" x="84.863281"/>
      </g>
     </g>
    </g>
    <g id="ytick_9">
     <g id="line2d_32">
      <defs>
       <path id="m9f2b652589" d="M 0 0 
L -2 0 
" style="stroke: #000000; stroke-width: 0.6"/>
      </defs>
      <g>
       <use xlink:href="#m9f2b652589" x="72.83" y="360.494866" style="stroke: #000000; stroke-width: 0.6"/>
      </g>
     </g>
    </g>
    <g id="ytick_10">
     <g id="line2d_33">
      <g>
       <use xlink:href="#m9f2b652589" x="72.83" y="352.046641" style="stroke: #000000; stroke-width: 0.6"/>
      </g>
     </g>
    </g>
    <g id="ytick_11">
     <g id="line2d_34">
      <g>
       <use xlink:href="#m9f2b652589" x="72.83" y="343.598415" style="stroke: #000000; stroke-width: 0.6"/>
      </g>
     </g>
    </g>
    <g id="ytick_12">
     <g id="line2d_35">
      <g>
       <use xlink:href="#m9f2b652589" x="72.83" y="335.15019" style="stroke: #000000; stroke-width: 0.6"/>
      </g>
     </g>
    </g>
    <g id="ytick_13">
     <g id="line2d_36">
      <g>
       <use xlink:href="#m9f2b652589" x="72.83" y="318.253738" style="stroke: #000000; stroke-width: 0.6"/>
      </g>
     </g>
    </g>
    <g id="ytick_14">
     <g id="line2d_37">
      <g>
       <use xlink:href="#m9f2b652589" x="72.83" y="309.805513" style="stroke: #000000; stroke-width: 0.6"/>
      </g>
     </g>
    </g>
    <g id="ytick_15">
     <g id="line2d_38">
      <g>
       <use xlink:href="#m9f2b652589" x="72.83" y="301.357287" style="stroke: #000000; stroke-width: 0.6"/>
      </g>
     </g>
    </g>
    <g id="ytick_16">
     <g id="line2d_39">
      <g>
       <use xlink:href="#m9f2b652589" x="72.83" y="292.909062" style="stroke: #000000; stroke-width: 0.6"/>
      </g>
     </g>
    </g>
    <g id="ytick_17">
     <g id="line2d_40">
      <g>
       <use xlink:href="#m9f2b652589" x="72.83" y="276.012611" style="stroke: #000000; stroke-width: 0.6"/>
      </g>
     </g>
    </g>
    <g id="ytick_18">
     <g id="line2d_41">
      <g>
       <use xlink:href="#m9f2b652589" x="72.83" y="267.564385" style="stroke: #000000; stroke-width: 0.6"/>
      </g>
     </g>
    </g>
    <g id="ytick_19">
     <g id="line2d_42">
      <g>
       <use xlink:href="#m9f2b652589" x="72.83" y="259.116159" style="stroke: #000000; stroke-width: 0.6"/>
      </g>
     </g>
    </g>
    <g id="ytick_20">
     <g id="line2d_43">
      <g>
       <use xlink:href="#m9f2b652589" x="72.83" y="250.667934" style="stroke: #000000; stroke-width: 0.6"/>
      </g>
     </g>
    </g>
    <g id="ytick_21">
     <g id="line2d_44">
      <g>
       <use xlink:href="#m9f2b652589" x="72.83" y="233.771483" style="stroke: #000000; stroke-width: 0.6"/>
      </g>
     </g>
    </g>
    <g id="ytick_22">
     <g id="line2d_45">
      <g>
       <use xlink:href="#m9f2b652589" x="72.83" y="225.323257" style="stroke: #000000; stroke-width: 0.6"/>
      </g>
     </g>
    </g>
    <g id="ytick_23">
     <g id="line2d_46">
      <g>
       <use xlink:href="#m9f2b652589" x="72.83" y="216.875032" style="stroke: #000000; stroke-width: 0.6"/>
      </g>
     </g>
    </g>
    <g id="ytick_24">
     <g id="line2d_47">
      <g>
       <use xlink:href="#m9f2b652589" x="72.83" y="208.426806" style="stroke: #000000; stroke-width: 0.6"/>
      </g>
     </g>
    </g>
    <g id="ytick_25">
     <g id="line2d_48">
      <g>
       <use xlink:href="#m9f2b652589" x="72.83" y="191.530355" style="stroke: #000000; stroke-width: 0.6"/>
      </g>
     </g>
    </g>
    <g id="ytick_26">
     <g id="line2d_49">
      <g>
       <use xlink:href="#m9f2b652589" x="72.83" y="183.082129" style="stroke: #000000; stroke-width: 0.6"/>
      </g>
     </g>
    </g>
    <g id="ytick_27">
     <g id="line2d_50">
      <g>
       <use xlink:href="#m9f2b652589" x="72.83" y="174.633904" style="stroke: #000000; stroke-width: 0.6"/>
      </g>
     </g>
    </g>
    <g id="ytick_28">
     <g id="line2d_51">
      <g>
       <use xlink:href="#m9f2b652589" x="72.83" y="166.185678" style="stroke: #000000; stroke-width: 0.6"/>
      </g>
     </g>
    </g>
    <g id="ytick_29">
     <g id="line2d_52">
      <g>
       <use xlink:href="#m9f2b652589" x="72.83" y="149.289227" style="stroke: #000000; stroke-width: 0.6"/>
      </g>
     </g>
    </g>
    <g id="ytick_30">
     <g id="line2d_53">
      <g>
       <use xlink:href="#m9f2b652589" x="72.83" y="140.841001" style="stroke: #000000; stroke-width: 0.6"/>
      </g>
     </g>
    </g>
    <g id="ytick_31">
     <g id="line2d_54">
      <g>
       <use xlink:href="#m9f2b652589" x="72.83" y="132.392776" style="stroke: #000000; stroke-width: 0.6"/>
      </g>
     </g>
    </g>
    <g id="ytick_32">
     <g id="line2d_55">
      <g>
       <use xlink:href="#m9f2b652589" x="72.83" y="123.94455" style="stroke: #000000; stroke-width: 0.6"/>
      </g>
     </g>
    </g>
    <g id="ytick_33">
     <g id="line2d_56">
      <g>
       <use xlink:href="#m9f2b652589" x="72.83" y="107.048099" style="stroke: #000000; stroke-width: 0.6"/>
      </g>
     </g>
    </g>
    <g id="ytick_34">
     <g id="line2d_57">
      <g>
       <use xlink:href="#m9f2b652589" x="72.83" y="98.599874" style="stroke: #000000; stroke-width: 0.6"/>
      </g>
     </g>
    </g>
    <g id="ytick_35">
     <g id="line2d_58">
      <g>
       <use xlink:href="#m9f2b652589" x="72.83" y="90.151648" style="stroke: #000000; stroke-width: 0.6"/>
      </g>
     </g>
    </g>
    <g id="ytick_36">
     <g id="line2d_59">
      <g>
       <use xlink:href="#m9f2b652589" x="72.83" y="81.703422" style="stroke: #000000; stroke-width: 0.6"/>
      </g>
     </g>
    </g>
    <g id="ytick_37">
     <g id="line2d_60">
      <g>
       <use xlink:href="#m9f2b652589" x="72.83" y="64.806971" style="stroke: #000000; stroke-width: 0.6"/>
      </g>
     </g>
    </g>
    <g id="ytick_38">
     <g id="line2d_61">
      <g>
       <use xlink:href="#m9f2b652589" x="72.83" y="56.358746" style="stroke: #000000; stroke-width: 0.6"/>
      </g>
     </g>
    </g>
    <g id="ytick_39">
     <g id="line2d_62">
      <g>
       <use xlink:href="#m9f2b652589" x="72.83" y="47.91052" style="stroke: #000000; stroke-width: 0.6"/>
      </g>
     </g>
    </g>
    <g id="ytick_40">
     <g id="line2d_63">
      <g>
       <use xlink:href="#m9f2b652589" x="72.83" y="39.462295" style="stroke: #000000; stroke-width: 0.6"/>
      </g>
     </g>
    </g>
    <g id="ytick_41">
     <g id="line2d_64">
      <g>
       <use xlink:href="#m9f2b652589" x="72.83" y="22.565843" style="stroke: #000000; stroke-width: 0.6"/>
      </g>
     </g>
    </g>
    <g id="text_16">
     <!-- Relative Contribution -->
     <g transform="translate(33.103125 275.790781) rotate(-90) scale(0.18 -0.18)">
      <defs>
       <path id="Tahoma-52" d="M 4075 0 
L 3272 0 
L 1797 1850 
L 1091 1850 
L 1091 0 
L 472 0 
L 472 4653 
L 1672 4653 
Q 2072 4653 2342 4609 
Q 2613 4566 2856 4406 
Q 3100 4250 3242 4003 
Q 3384 3756 3384 3391 
Q 3384 2878 3125 2534 
Q 2866 2191 2419 2025 
L 4075 0 
z
M 2738 3344 
Q 2738 3547 2666 3705 
Q 2594 3863 2444 3963 
Q 2313 4050 2138 4086 
Q 1963 4122 1703 4122 
L 1091 4122 
L 1091 2366 
L 1634 2366 
Q 1900 2366 2112 2412 
Q 2325 2459 2475 2606 
Q 2609 2738 2673 2919 
Q 2738 3100 2738 3344 
z
" transform="scale(0.015625)"/>
       <path id="Tahoma-6c" d="M 1025 0 
L 438 0 
L 438 4863 
L 1025 4863 
L 1025 0 
z
" transform="scale(0.015625)"/>
       <path id="Tahoma-74" d="M 1481 -69 
Q 1000 -69 731 204 
Q 463 478 463 1069 
L 463 3003 
L 66 3003 
L 66 3491 
L 463 3491 
L 463 4494 
L 1050 4494 
L 1050 3491 
L 2131 3491 
L 2131 3003 
L 1050 3003 
L 1050 1344 
Q 1050 1078 1059 934 
Q 1069 791 1131 666 
Q 1184 556 1303 501 
Q 1422 447 1625 447 
Q 1769 447 1903 489 
Q 2038 531 2097 559 
L 2131 559 
L 2131 31 
Q 1966 -16 1795 -42 
Q 1625 -69 1481 -69 
z
" transform="scale(0.015625)"/>
       <path id="Tahoma-69" d="M 1025 0 
L 438 0 
L 438 3491 
L 1025 3491 
L 1025 0 
z
M 1066 4075 
L 397 4075 
L 397 4684 
L 1066 4684 
L 1066 4075 
z
" transform="scale(0.015625)"/>
       <path id="Tahoma-76" d="M 3169 3491 
L 1853 0 
L 1325 0 
L 19 3491 
L 653 3491 
L 1609 797 
L 2556 3491 
L 3169 3491 
z
" transform="scale(0.015625)"/>
       <path id="Tahoma-20" transform="scale(0.015625)"/>
       <path id="Tahoma-43" d="M 2291 -84 
Q 1834 -84 1451 69 
Q 1069 222 791 525 
Q 513 828 359 1281 
Q 206 1734 206 2322 
Q 206 2906 354 3340 
Q 503 3775 788 4097 
Q 1066 4409 1447 4573 
Q 1828 4738 2300 4738 
Q 2534 4738 2739 4703 
Q 2944 4669 3119 4616 
Q 3269 4569 3426 4498 
Q 3584 4428 3738 4344 
L 3738 3597 
L 3688 3597 
Q 3606 3672 3478 3778 
Q 3350 3884 3166 3988 
Q 2988 4084 2778 4146 
Q 2569 4209 2294 4209 
Q 1997 4209 1731 4087 
Q 1466 3966 1266 3728 
Q 1069 3491 959 3131 
Q 850 2772 850 2322 
Q 850 1844 965 1498 
Q 1081 1153 1281 916 
Q 1475 684 1737 567 
Q 2000 450 2294 450 
Q 2563 450 2791 515 
Q 3019 581 3197 681 
Q 3369 778 3494 879 
Q 3619 981 3691 1053 
L 3738 1053 
L 3738 316 
Q 3584 244 3448 178 
Q 3313 113 3119 50 
Q 2916 -16 2742 -50 
Q 2569 -84 2291 -84 
z
" transform="scale(0.015625)"/>
       <path id="Tahoma-6f" d="M 3297 1744 
Q 3297 863 2872 383 
Q 2447 -97 1741 -97 
Q 1013 -97 595 398 
Q 178 894 178 1744 
Q 178 2619 608 3103 
Q 1038 3588 1741 3588 
Q 2447 3588 2872 3105 
Q 3297 2622 3297 1744 
z
M 2691 1744 
Q 2691 2422 2444 2751 
Q 2197 3081 1741 3081 
Q 1281 3081 1032 2751 
Q 784 2422 784 1744 
Q 784 1088 1032 748 
Q 1281 409 1741 409 
Q 2194 409 2442 742 
Q 2691 1075 2691 1744 
z
" transform="scale(0.015625)"/>
       <path id="Tahoma-6e" d="M 3169 0 
L 2581 0 
L 2581 1988 
Q 2581 2228 2557 2436 
Q 2534 2644 2469 2769 
Q 2397 2900 2269 2964 
Q 2141 3028 1919 3028 
Q 1700 3028 1467 2911 
Q 1234 2794 1013 2606 
L 1013 0 
L 425 0 
L 425 3491 
L 1013 3491 
L 1013 3103 
Q 1275 3338 1531 3463 
Q 1788 3588 2072 3588 
Q 2588 3588 2878 3248 
Q 3169 2909 3169 2266 
L 3169 0 
z
" transform="scale(0.015625)"/>
       <path id="Tahoma-62" d="M 2747 1756 
Q 2747 2381 2556 2704 
Q 2366 3028 1944 3028 
Q 1703 3028 1458 2915 
Q 1213 2803 1013 2631 
L 1013 631 
Q 1234 522 1406 476 
Q 1578 431 1784 431 
Q 2234 431 2490 750 
Q 2747 1069 2747 1756 
z
M 3353 1803 
Q 3353 947 2937 425 
Q 2522 -97 1897 -97 
Q 1613 -97 1411 -26 
Q 1209 44 1013 163 
L 975 0 
L 425 0 
L 425 4863 
L 1013 4863 
L 1013 3125 
Q 1234 3325 1493 3456 
Q 1753 3588 2081 3588 
Q 2672 3588 3012 3114 
Q 3353 2641 3353 1803 
z
" transform="scale(0.015625)"/>
       <path id="Tahoma-75" d="M 3144 0 
L 2556 0 
L 2556 388 
Q 2284 150 2040 26 
Q 1797 -97 1497 -97 
Q 1269 -97 1067 -22 
Q 866 53 716 216 
Q 566 378 483 625 
Q 400 872 400 1225 
L 400 3491 
L 988 3491 
L 988 1503 
Q 988 1225 1008 1042 
Q 1028 859 1100 722 
Q 1172 588 1295 525 
Q 1419 463 1650 463 
Q 1866 463 2109 584 
Q 2353 706 2556 884 
L 2556 3491 
L 3144 3491 
L 3144 0 
z
" transform="scale(0.015625)"/>
      </defs>
      <use xlink:href="#Tahoma-52"/>
      <use xlink:href="#Tahoma-65" x="60.310547"/>
      <use xlink:href="#Tahoma-6c" x="112.947266"/>
      <use xlink:href="#Tahoma-61" x="135.798828"/>
      <use xlink:href="#Tahoma-74" x="188.289062"/>
      <use xlink:href="#Tahoma-69" x="221.736328"/>
      <use xlink:href="#Tahoma-76" x="244.587891"/>
      <use xlink:href="#Tahoma-65" x="293.642578"/>
      <use xlink:href="#Tahoma-20" x="346.279297"/>
      <use xlink:href="#Tahoma-43" x="377.529297"/>
      <use xlink:href="#Tahoma-6f" x="437.587891"/>
      <use xlink:href="#Tahoma-6e" x="491.884766"/>
      <use xlink:href="#Tahoma-74" x="547.646484"/>
      <use xlink:href="#Tahoma-72" x="581.09375"/>
      <use xlink:href="#Tahoma-69" x="617.128906"/>
      <use xlink:href="#Tahoma-62" x="639.980469"/>
      <use xlink:href="#Tahoma-75" x="695.253906"/>
      <use xlink:href="#Tahoma-74" x="751.015625"/>
      <use xlink:href="#Tahoma-69" x="784.462891"/>
      <use xlink:href="#Tahoma-6f" x="807.314453"/>
      <use xlink:href="#Tahoma-6e" x="861.611328"/>
     </g>
    </g>
   </g>
   <g id="line2d_65">
    <path d="M 1015.663182 252.77999 
L 998.395175 180.12525 
L 981.127168 234.193894 
L 955.225157 225.745668 
L 946.591154 184.349363 
L 920.689143 184.349363 
L 912.05514 325.857141 
L 894.787133 159.004686 
L 877.519126 252.77999 
L 868.885122 262.49545 
L 842.983112 299.667642 
L 825.715105 202.513048 
L 765.27708 222.366378 
L 765.27708 213.495741 
L 739.37507 285.305659 
L 713.473059 263.340272 
L 696.205052 247.288644 
L 687.571049 199.97858 
L 653.035035 285.305659 
L 592.59701 281.926368 
L 583.963007 327.969198 
L 575.329003 233.349071 
L 566.695 295.021118 
L 558.060997 276.857433 
L 532.158986 248.133466 
L 342.210909 220.254322 
L 342.210909 223.211201 
L 299.040892 211.806096 
L 221.33486 218.142265 
L 117.726818 252.77999 
" clip-path="url(#p03f45fa23f)" style="fill: none; stroke: #054573; stroke-width: 2; stroke-linecap: square"/>
    <defs>
     <path id="mfb8d7f985c" d="M 0 3 
C 0.795609 3 1.55874 2.683901 2.12132 2.12132 
C 2.683901 1.55874 3 0.795609 3 0 
C 3 -0.795609 2.683901 -1.55874 2.12132 -2.12132 
C 1.55874 -2.683901 0.795609 -3 0 -3 
C -0.795609 -3 -1.55874 -2.683901 -2.12132 -2.12132 
C -2.683901 -1.55874 -3 -0.795609 -3 0 
C -3 0.795609 -2.683901 1.55874 -2.12132 2.12132 
C -1.55874 2.683901 -0.795609 3 0 3 
z
" style="stroke: #054573"/>
    </defs>
    <g clip-path="url(#p03f45fa23f)">
     <use xlink:href="#mfb8d7f985c" x="1015.663182" y="252.77999" style="fill: #054573; stroke: #054573"/>
     <use xlink:href="#mfb8d7f985c" x="998.395175" y="180.12525" style="fill: #054573; stroke: #054573"/>
     <use xlink:href="#mfb8d7f985c" x="981.127168" y="234.193894" style="fill: #054573; stroke: #054573"/>
     <use xlink:href="#mfb8d7f985c" x="955.225157" y="225.745668" style="fill: #054573; stroke: #054573"/>
     <use xlink:href="#mfb8d7f985c" x="946.591154" y="184.349363" style="fill: #054573; stroke: #054573"/>
     <use xlink:href="#mfb8d7f985c" x="920.689143" y="184.349363" style="fill: #054573; stroke: #054573"/>
     <use xlink:href="#mfb8d7f985c" x="912.05514" y="325.857141" style="fill: #054573; stroke: #054573"/>
     <use xlink:href="#mfb8d7f985c" x="894.787133" y="159.004686" style="fill: #054573; stroke: #054573"/>
     <use xlink:href="#mfb8d7f985c" x="877.519126" y="252.77999" style="fill: #054573; stroke: #054573"/>
     <use xlink:href="#mfb8d7f985c" x="868.885122" y="262.49545" style="fill: #054573; stroke: #054573"/>
     <use xlink:href="#mfb8d7f985c" x="842.983112" y="299.667642" style="fill: #054573; stroke: #054573"/>
     <use xlink:href="#mfb8d7f985c" x="825.715105" y="202.513048" style="fill: #054573; stroke: #054573"/>
     <use xlink:href="#mfb8d7f985c" x="765.27708" y="222.366378" style="fill: #054573; stroke: #054573"/>
     <use xlink:href="#mfb8d7f985c" x="765.27708" y="213.495741" style="fill: #054573; stroke: #054573"/>
     <use xlink:href="#mfb8d7f985c" x="739.37507" y="285.305659" style="fill: #054573; stroke: #054573"/>
     <use xlink:href="#mfb8d7f985c" x="713.473059" y="263.340272" style="fill: #054573; stroke: #054573"/>
     <use xlink:href="#mfb8d7f985c" x="696.205052" y="247.288644" style="fill: #054573; stroke: #054573"/>
     <use xlink:href="#mfb8d7f985c" x="687.571049" y="199.97858" style="fill: #054573; stroke: #054573"/>
     <use xlink:href="#mfb8d7f985c" x="653.035035" y="285.305659" style="fill: #054573; stroke: #054573"/>
     <use xlink:href="#mfb8d7f985c" x="592.59701" y="281.926368" style="fill: #054573; stroke: #054573"/>
     <use xlink:href="#mfb8d7f985c" x="583.963007" y="327.969198" style="fill: #054573; stroke: #054573"/>
     <use xlink:href="#mfb8d7f985c" x="575.329003" y="233.349071" style="fill: #054573; stroke: #054573"/>
     <use xlink:href="#mfb8d7f985c" x="566.695" y="295.021118" style="fill: #054573; stroke: #054573"/>
     <use xlink:href="#mfb8d7f985c" x="558.060997" y="276.857433" style="fill: #054573; stroke: #054573"/>
     <use xlink:href="#mfb8d7f985c" x="532.158986" y="248.133466" style="fill: #054573; stroke: #054573"/>
     <use xlink:href="#mfb8d7f985c" x="342.210909" y="220.254322" style="fill: #054573; stroke: #054573"/>
     <use xlink:href="#mfb8d7f985c" x="342.210909" y="223.211201" style="fill: #054573; stroke: #054573"/>
     <use xlink:href="#mfb8d7f985c" x="299.040892" y="211.806096" style="fill: #054573; stroke: #054573"/>
     <use xlink:href="#mfb8d7f985c" x="221.33486" y="218.142265" style="fill: #054573; stroke: #054573"/>
     <use xlink:href="#mfb8d7f985c" x="117.726818" y="252.77999" style="fill: #054573; stroke: #054573"/>
    </g>
   </g>
   <g id="line2d_66">
    <path d="M 72.83 242.346432 
L 1060.56 242.346432 
" clip-path="url(#p03f45fa23f)" style="fill: none; stroke-dasharray: 7.4,3.2; stroke-dashoffset: 0; stroke: #054573; stroke-width: 2"/>
   </g>
   <g id="line2d_67">
    <path d="M 1015.663182 319.098561 
L 998.395175 317.408916 
L 981.127168 306.003811 
L 955.225157 295.865941 
L 946.591154 316.986505 
L 920.689143 294.598707 
L 912.05514 294.176296 
L 894.787133 283.193602 
L 877.519126 290.797005 
L 868.885122 271.366087 
L 842.983112 307.271045 
L 825.715105 293.753884 
L 765.27708 302.20211 
L 765.27708 300.090053 
L 739.37507 308.115868 
L 713.473059 306.848634 
L 696.205052 306.426223 
L 687.571049 300.934876 
L 653.035035 277.702256 
L 592.59701 305.158989 
L 583.963007 298.82282 
L 575.329003 295.443529 
L 566.695 311.495158 
L 558.060997 307.693456 
L 532.158986 292.064239 
L 342.210909 292.909062 
L 342.210909 292.48665 
L 299.040892 293.753884 
L 221.33486 273.478143 
L 117.726818 286.150481 
" clip-path="url(#p03f45fa23f)" style="fill: none; stroke: #b5b5b5; stroke-width: 2; stroke-linecap: square"/>
    <defs>
     <path id="mbc9fce91ba" d="M 0 3 
C 0.795609 3 1.55874 2.683901 2.12132 2.12132 
C 2.683901 1.55874 3 0.795609 3 0 
C 3 -0.795609 2.683901 -1.55874 2.12132 -2.12132 
C 1.55874 -2.683901 0.795609 -3 0 -3 
C -0.795609 -3 -1.55874 -2.683901 -2.12132 -2.12132 
C -2.683901 -1.55874 -3 -0.795609 -3 0 
C -3 0.795609 -2.683901 1.55874 -2.12132 2.12132 
C -1.55874 2.683901 -0.795609 3 0 3 
z
" style="stroke: #b5b5b5"/>
    </defs>
    <g clip-path="url(#p03f45fa23f)">
     <use xlink:href="#mbc9fce91ba" x="1015.663182" y="319.098561" style="fill: #b5b5b5; stroke: #b5b5b5"/>
     <use xlink:href="#mbc9fce91ba" x="998.395175" y="317.408916" style="fill: #b5b5b5; stroke: #b5b5b5"/>
     <use xlink:href="#mbc9fce91ba" x="981.127168" y="306.003811" style="fill: #b5b5b5; stroke: #b5b5b5"/>
     <use xlink:href="#mbc9fce91ba" x="955.225157" y="295.865941" style="fill: #b5b5b5; stroke: #b5b5b5"/>
     <use xlink:href="#mbc9fce91ba" x="946.591154" y="316.986505" style="fill: #b5b5b5; stroke: #b5b5b5"/>
     <use xlink:href="#mbc9fce91ba" x="920.689143" y="294.598707" style="fill: #b5b5b5; stroke: #b5b5b5"/>
     <use xlink:href="#mbc9fce91ba" x="912.05514" y="294.176296" style="fill: #b5b5b5; stroke: #b5b5b5"/>
     <use xlink:href="#mbc9fce91ba" x="894.787133" y="283.193602" style="fill: #b5b5b5; stroke: #b5b5b5"/>
     <use xlink:href="#mbc9fce91ba" x="877.519126" y="290.797005" style="fill: #b5b5b5; stroke: #b5b5b5"/>
     <use xlink:href="#mbc9fce91ba" x="868.885122" y="271.366087" style="fill: #b5b5b5; stroke: #b5b5b5"/>
     <use xlink:href="#mbc9fce91ba" x="842.983112" y="307.271045" style="fill: #b5b5b5; stroke: #b5b5b5"/>
     <use xlink:href="#mbc9fce91ba" x="825.715105" y="293.753884" style="fill: #b5b5b5; stroke: #b5b5b5"/>
     <use xlink:href="#mbc9fce91ba" x="765.27708" y="302.20211" style="fill: #b5b5b5; stroke: #b5b5b5"/>
     <use xlink:href="#mbc9fce91ba" x="765.27708" y="300.090053" style="fill: #b5b5b5; stroke: #b5b5b5"/>
     <use xlink:href="#mbc9fce91ba" x="739.37507" y="308.115868" style="fill: #b5b5b5; stroke: #b5b5b5"/>
     <use xlink:href="#mbc9fce91ba" x="713.473059" y="306.848634" style="fill: #b5b5b5; stroke: #b5b5b5"/>
     <use xlink:href="#mbc9fce91ba" x="696.205052" y="306.426223" style="fill: #b5b5b5; stroke: #b5b5b5"/>
     <use xlink:href="#mbc9fce91ba" x="687.571049" y="300.934876" style="fill: #b5b5b5; stroke: #b5b5b5"/>
     <use xlink:href="#mbc9fce91ba" x="653.035035" y="277.702256" style="fill: #b5b5b5; stroke: #b5b5b5"/>
     <use xlink:href="#mbc9fce91ba" x="592.59701" y="305.158989" style="fill: #b5b5b5; stroke: #b5b5b5"/>
     <use xlink:href="#mbc9fce91ba" x="583.963007" y="298.82282" style="fill: #b5b5b5; stroke: #b5b5b5"/>
     <use xlink:href="#mbc9fce91ba" x="575.329003" y="295.443529" style="fill: #b5b5b5; stroke: #b5b5b5"/>
     <use xlink:href="#mbc9fce91ba" x="566.695" y="311.495158" style="fill: #b5b5b5; stroke: #b5b5b5"/>
     <use xlink:href="#mbc9fce91ba" x="558.060997" y="307.693456" style="fill: #b5b5b5; stroke: #b5b5b5"/>
     <use xlink:href="#mbc9fce91ba" x="532.158986" y="292.064239" style="fill: #b5b5b5; stroke: #b5b5b5"/>
     <use xlink:href="#mbc9fce91ba" x="342.210909" y="292.909062" style="fill: #b5b5b5; stroke: #b5b5b5"/>
     <use xlink:href="#mbc9fce91ba" x="342.210909" y="292.48665" style="fill: #b5b5b5; stroke: #b5b5b5"/>
     <use xlink:href="#mbc9fce91ba" x="299.040892" y="293.753884" style="fill: #b5b5b5; stroke: #b5b5b5"/>
     <use xlink:href="#mbc9fce91ba" x="221.33486" y="273.478143" style="fill: #b5b5b5; stroke: #b5b5b5"/>
     <use xlink:href="#mbc9fce91ba" x="117.726818" y="286.150481" style="fill: #b5b5b5; stroke: #b5b5b5"/>
    </g>
   </g>
   <g id="line2d_68">
    <path d="M 72.83 298.07656 
L 1060.56 298.07656 
" clip-path="url(#p03f45fa23f)" style="fill: none; stroke-dasharray: 7.4,3.2; stroke-dashoffset: 0; stroke: #b5b5b5; stroke-width: 2"/>
   </g>
   <g id="line2d_69">
    <path d="M 1015.663182 112.539446 
L 998.395175 186.883831 
L 981.127168 144.220292 
L 955.225157 162.806388 
L 946.591154 183.082129 
L 920.689143 205.469927 
L 912.05514 63.962149 
L 894.787133 241.797297 
L 877.519126 140.841001 
L 868.885122 150.556461 
L 842.983112 77.901721 
L 825.715105 188.151065 
L 765.27708 159.849509 
L 765.27708 170.832202 
L 739.37507 90.996471 
L 713.473059 114.651502 
L 696.205052 130.703131 
L 687.571049 183.504541 
L 653.035035 121.410083 
L 592.59701 97.33264 
L 583.963007 57.203568 
L 575.329003 155.625396 
L 566.695 77.901721 
L 558.060997 99.867107 
L 532.158986 144.220292 
L 342.210909 171.254614 
L 342.210909 168.720146 
L 299.040892 178.858017 
L 221.33486 192.797589 
L 117.726818 145.487526 
" clip-path="url(#p03f45fa23f)" style="fill: none; stroke: #c01511; stroke-width: 2; stroke-linecap: square"/>
    <defs>
     <path id="m6ac7d0fdca" d="M 0 3 
C 0.795609 3 1.55874 2.683901 2.12132 2.12132 
C 2.683901 1.55874 3 0.795609 3 0 
C 3 -0.795609 2.683901 -1.55874 2.12132 -2.12132 
C 1.55874 -2.683901 0.795609 -3 0 -3 
C -0.795609 -3 -1.55874 -2.683901 -2.12132 -2.12132 
C -2.683901 -1.55874 -3 -0.795609 -3 0 
C -3 0.795609 -2.683901 1.55874 -2.12132 2.12132 
C -1.55874 2.683901 -0.795609 3 0 3 
z
" style="stroke: #c01511"/>
    </defs>
    <g clip-path="url(#p03f45fa23f)">
     <use xlink:href="#m6ac7d0fdca" x="1015.663182" y="112.539446" style="fill: #c01511; stroke: #c01511"/>
     <use xlink:href="#m6ac7d0fdca" x="998.395175" y="186.883831" style="fill: #c01511; stroke: #c01511"/>
     <use xlink:href="#m6ac7d0fdca" x="981.127168" y="144.220292" style="fill: #c01511; stroke: #c01511"/>
     <use xlink:href="#m6ac7d0fdca" x="955.225157" y="162.806388" style="fill: #c01511; stroke: #c01511"/>
     <use xlink:href="#m6ac7d0fdca" x="946.591154" y="183.082129" style="fill: #c01511; stroke: #c01511"/>
     <use xlink:href="#m6ac7d0fdca" x="920.689143" y="205.469927" style="fill: #c01511; stroke: #c01511"/>
     <use xlink:href="#m6ac7d0fdca" x="912.05514" y="63.962149" style="fill: #c01511; stroke: #c01511"/>
     <use xlink:href="#m6ac7d0fdca" x="894.787133" y="241.797297" style="fill: #c01511; stroke: #c01511"/>
     <use xlink:href="#m6ac7d0fdca" x="877.519126" y="140.841001" style="fill: #c01511; stroke: #c01511"/>
     <use xlink:href="#m6ac7d0fdca" x="868.885122" y="150.556461" style="fill: #c01511; stroke: #c01511"/>
     <use xlink:href="#m6ac7d0fdca" x="842.983112" y="77.901721" style="fill: #c01511; stroke: #c01511"/>
     <use xlink:href="#m6ac7d0fdca" x="825.715105" y="188.151065" style="fill: #c01511; stroke: #c01511"/>
     <use xlink:href="#m6ac7d0fdca" x="765.27708" y="159.849509" style="fill: #c01511; stroke: #c01511"/>
     <use xlink:href="#m6ac7d0fdca" x="765.27708" y="170.832202" style="fill: #c01511; stroke: #c01511"/>
     <use xlink:href="#m6ac7d0fdca" x="739.37507" y="90.996471" style="fill: #c01511; stroke: #c01511"/>
     <use xlink:href="#m6ac7d0fdca" x="713.473059" y="114.651502" style="fill: #c01511; stroke: #c01511"/>
     <use xlink:href="#m6ac7d0fdca" x="696.205052" y="130.703131" style="fill: #c01511; stroke: #c01511"/>
     <use xlink:href="#m6ac7d0fdca" x="687.571049" y="183.504541" style="fill: #c01511; stroke: #c01511"/>
     <use xlink:href="#m6ac7d0fdca" x="653.035035" y="121.410083" style="fill: #c01511; stroke: #c01511"/>
     <use xlink:href="#m6ac7d0fdca" x="592.59701" y="97.33264" style="fill: #c01511; stroke: #c01511"/>
     <use xlink:href="#m6ac7d0fdca" x="583.963007" y="57.203568" style="fill: #c01511; stroke: #c01511"/>
     <use xlink:href="#m6ac7d0fdca" x="575.329003" y="155.625396" style="fill: #c01511; stroke: #c01511"/>
     <use xlink:href="#m6ac7d0fdca" x="566.695" y="77.901721" style="fill: #c01511; stroke: #c01511"/>
     <use xlink:href="#m6ac7d0fdca" x="558.060997" y="99.867107" style="fill: #c01511; stroke: #c01511"/>
     <use xlink:href="#m6ac7d0fdca" x="532.158986" y="144.220292" style="fill: #c01511; stroke: #c01511"/>
     <use xlink:href="#m6ac7d0fdca" x="342.210909" y="171.254614" style="fill: #c01511; stroke: #c01511"/>
     <use xlink:href="#m6ac7d0fdca" x="342.210909" y="168.720146" style="fill: #c01511; stroke: #c01511"/>
     <use xlink:href="#m6ac7d0fdca" x="299.040892" y="178.858017" style="fill: #c01511; stroke: #c01511"/>
     <use xlink:href="#m6ac7d0fdca" x="221.33486" y="192.797589" style="fill: #c01511; stroke: #c01511"/>
     <use xlink:href="#m6ac7d0fdca" x="117.726818" y="145.487526" style="fill: #c01511; stroke: #c01511"/>
    </g>
   </g>
   <g id="line2d_70">
    <path d="M 72.83 143.980925 
L 1060.56 143.980925 
" clip-path="url(#p03f45fa23f)" style="fill: none; stroke-dasharray: 7.4,3.2; stroke-dashoffset: 0; stroke: #c01511; stroke-width: 2"/>
   </g>
   <g id="line2d_71"/>
   <g id="patch_3">
    <path d="M 72.83 367 
L 72.83 19.44 
" style="fill: none; stroke: #000000; stroke-width: 0.8; stroke-linejoin: miter; stroke-linecap: square"/>
   </g>
   <g id="patch_4">
    <path d="M 1060.56 367 
L 1060.56 19.44 
" style="fill: none; stroke: #000000; stroke-width: 0.8; stroke-linejoin: miter; stroke-linecap: square"/>
   </g>
   <g id="patch_5">
    <path d="M 72.83 367 
L 1060.56 367 
" style="fill: none; stroke: #000000; stroke-width: 0.8; stroke-linejoin: miter; stroke-linecap: square"/>
   </g>
   <g id="patch_6">
    <path d="M 72.83 19.44 
L 1060.56 19.44 
" style="fill: none; stroke: #000000; stroke-width: 0.8; stroke-linejoin: miter; stroke-linecap: square"/>
   </g>
   <g id="legend_1">
    <g id="patch_7">
     <path d="M 85.43 139.134375 
L 226.097187 139.134375 
Q 229.697187 139.134375 229.697187 135.534375 
L 229.697187 32.04 
Q 229.697187 28.44 226.097187 28.44 
L 85.43 28.44 
Q 81.83 28.44 81.83 32.04 
L 81.83 135.534375 
Q 81.83 139.134375 85.43 139.134375 
z
" style="fill: #ffffff; opacity: 0.8; stroke: #cccccc; stroke-linejoin: miter"/>
    </g>
    <g id="line2d_72">
     <path d="M 89.03 43.017188 
L 107.03 43.017188 
L 125.03 43.017188 
" style="fill: none; stroke: #054573; stroke-width: 2; stroke-linecap: square"/>
     <g>
      <use xlink:href="#mfb8d7f985c" x="107.03" y="43.017188" style="fill: #054573; stroke: #054573"/>
     </g>
    </g>
    <g id="text_17">
     <!-- Aquatic -->
     <g transform="translate(139.43 49.317188) scale(0.18 -0.18)">
      <defs>
       <path id="Tahoma-41" d="M -31 0 
L 1538 4653 
L 2300 4653 
L 3869 0 
L 3216 0 
L 2794 1300 
L 1016 1300 
L 594 0 
L -31 0 
z
M 2622 1828 
L 1903 4022 
L 1188 1828 
L 2622 1828 
z
" transform="scale(0.015625)"/>
       <path id="Tahoma-71" d="M 3113 -1288 
L 2525 -1288 
L 2525 381 
Q 2269 147 2025 39 
Q 1781 -69 1484 -69 
Q 891 -69 537 407 
Q 184 884 184 1734 
Q 184 2184 307 2529 
Q 431 2875 634 3109 
Q 828 3338 1097 3463 
Q 1366 3588 1656 3588 
Q 1925 3588 2122 3525 
Q 2319 3463 2525 3341 
L 2563 3491 
L 3113 3491 
L 3113 -1288 
z
M 2525 875 
L 2525 2863 
Q 2303 2972 2128 3015 
Q 1953 3059 1753 3059 
Q 1291 3059 1041 2725 
Q 791 2391 791 1763 
Q 791 1150 991 820 
Q 1191 491 1613 491 
Q 1859 491 2093 597 
Q 2328 703 2525 875 
z
" transform="scale(0.015625)"/>
       <path id="Tahoma-63" d="M 1813 -78 
Q 1453 -78 1153 33 
Q 853 144 638 369 
Q 422 594 303 936 
Q 184 1278 184 1741 
Q 184 2200 307 2534 
Q 431 2869 638 3097 
Q 844 3325 1151 3448 
Q 1459 3572 1813 3572 
Q 2100 3572 2367 3490 
Q 2634 3409 2844 3303 
L 2844 2644 
L 2809 2644 
Q 2747 2697 2648 2765 
Q 2550 2834 2409 2906 
Q 2288 2969 2122 3016 
Q 1956 3063 1803 3063 
Q 1347 3063 1070 2717 
Q 794 2372 794 1741 
Q 794 1122 1061 776 
Q 1328 431 1803 431 
Q 2091 431 2350 550 
Q 2609 669 2809 856 
L 2844 856 
L 2844 197 
Q 2756 156 2625 98 
Q 2494 41 2388 13 
Q 2238 -31 2119 -54 
Q 2000 -78 1813 -78 
z
" transform="scale(0.015625)"/>
      </defs>
      <use xlink:href="#Tahoma-41"/>
      <use xlink:href="#Tahoma-71" x="59.960938"/>
      <use xlink:href="#Tahoma-75" x="115.234375"/>
      <use xlink:href="#Tahoma-61" x="170.996094"/>
      <use xlink:href="#Tahoma-74" x="223.486328"/>
      <use xlink:href="#Tahoma-69" x="256.933594"/>
      <use xlink:href="#Tahoma-63" x="279.785156"/>
     </g>
    </g>
    <g id="line2d_73">
     <path d="M 89.03 69.316875 
L 107.03 69.316875 
L 125.03 69.316875 
" style="fill: none; stroke: #b5b5b5; stroke-width: 2; stroke-linecap: square"/>
     <g>
      <use xlink:href="#mbc9fce91ba" x="107.03" y="69.316875" style="fill: #b5b5b5; stroke: #b5b5b5"/>
     </g>
    </g>
    <g id="text_18">
     <!-- Petrogenic -->
     <g transform="translate(139.43 75.616875) scale(0.18 -0.18)">
      <defs>
       <path id="Tahoma-50" d="M 3409 3250 
Q 3409 2947 3301 2676 
Q 3194 2406 3003 2216 
Q 2763 1978 2438 1856 
Q 2113 1734 1616 1734 
L 1091 1734 
L 1091 0 
L 472 0 
L 472 4653 
L 1641 4653 
Q 2053 4653 2343 4584 
Q 2634 4516 2856 4363 
Q 3116 4184 3262 3911 
Q 3409 3638 3409 3250 
z
M 2766 3234 
Q 2766 3475 2683 3653 
Q 2600 3831 2431 3944 
Q 2284 4041 2089 4081 
Q 1894 4122 1603 4122 
L 1091 4122 
L 1091 2263 
L 1513 2263 
Q 1888 2263 2119 2323 
Q 2350 2384 2503 2541 
Q 2641 2681 2703 2847 
Q 2766 3013 2766 3234 
z
" transform="scale(0.015625)"/>
       <path id="Tahoma-67" d="M 2525 947 
L 2525 2863 
Q 2306 2969 2120 3014 
Q 1934 3059 1750 3059 
Q 1303 3059 1047 2731 
Q 791 2403 791 1791 
Q 791 1209 986 906 
Q 1181 603 1619 603 
Q 1847 603 2089 693 
Q 2331 784 2525 947 
z
M 550 -559 
Q 609 -584 725 -626 
Q 841 -669 988 -706 
Q 1150 -747 1287 -772 
Q 1425 -797 1588 -797 
Q 1859 -797 2048 -725 
Q 2238 -653 2344 -525 
Q 2444 -397 2484 -228 
Q 2525 -59 2525 156 
L 2525 463 
Q 2288 256 2059 157 
Q 1831 59 1488 59 
Q 891 59 537 503 
Q 184 947 184 1778 
Q 184 2213 306 2548 
Q 428 2884 634 3119 
Q 831 3344 1100 3466 
Q 1369 3588 1656 3588 
Q 1928 3588 2126 3523 
Q 2325 3459 2525 3341 
L 2559 3491 
L 3113 3491 
L 3113 397 
Q 3113 -491 2725 -906 
Q 2338 -1322 1541 -1322 
Q 1284 -1322 1017 -1281 
Q 750 -1241 519 -1172 
L 519 -559 
L 550 -559 
z
" transform="scale(0.015625)"/>
      </defs>
      <use xlink:href="#Tahoma-50"/>
      <use xlink:href="#Tahoma-65" x="52.876953"/>
      <use xlink:href="#Tahoma-74" x="105.513672"/>
      <use xlink:href="#Tahoma-72" x="138.960938"/>
      <use xlink:href="#Tahoma-6f" x="174.496094"/>
      <use xlink:href="#Tahoma-67" x="228.792969"/>
      <use xlink:href="#Tahoma-65" x="284.066406"/>
      <use xlink:href="#Tahoma-6e" x="336.703125"/>
      <use xlink:href="#Tahoma-69" x="392.464844"/>
      <use xlink:href="#Tahoma-63" x="415.316406"/>
     </g>
    </g>
    <g id="line2d_74">
     <path d="M 89.03 95.712188 
L 107.03 95.712188 
L 125.03 95.712188 
" style="fill: none; stroke: #c01511; stroke-width: 2; stroke-linecap: square"/>
     <g>
      <use xlink:href="#m6ac7d0fdca" x="107.03" y="95.712188" style="fill: #c01511; stroke: #c01511"/>
     </g>
    </g>
    <g id="text_19">
     <!-- Soil -->
     <g transform="translate(139.43 102.012188) scale(0.18 -0.18)">
      <defs>
       <path id="Tahoma-53" d="M 1769 -84 
Q 1263 -84 908 20 
Q 553 125 241 278 
L 241 1053 
L 284 1053 
Q 591 766 978 608 
Q 1366 450 1725 450 
Q 2238 450 2500 664 
Q 2763 878 2763 1228 
Q 2763 1506 2625 1681 
Q 2488 1856 2188 1941 
Q 1972 2003 1794 2043 
Q 1616 2084 1347 2153 
Q 1106 2216 915 2312 
Q 725 2409 578 2566 
Q 434 2719 354 2926 
Q 275 3134 275 3406 
Q 275 3972 715 4355 
Q 1156 4738 1841 4738 
Q 2231 4738 2579 4659 
Q 2928 4581 3225 4438 
L 3225 3697 
L 3178 3697 
Q 2956 3900 2609 4051 
Q 2263 4203 1881 4203 
Q 1450 4203 1184 4001 
Q 919 3800 919 3472 
Q 919 3175 1075 3000 
Q 1231 2825 1528 2744 
Q 1725 2691 2009 2623 
Q 2294 2556 2481 2500 
Q 2963 2353 3184 2056 
Q 3406 1759 3406 1325 
Q 3406 1053 3295 787 
Q 3184 522 2984 338 
Q 2759 134 2476 25 
Q 2194 -84 1769 -84 
z
" transform="scale(0.015625)"/>
      </defs>
      <use xlink:href="#Tahoma-53"/>
      <use xlink:href="#Tahoma-6f" x="55.962891"/>
      <use xlink:href="#Tahoma-69" x="110.259766"/>
      <use xlink:href="#Tahoma-6c" x="133.236328"/>
     </g>
    </g>
    <g id="line2d_75">
     <path d="M 89.03 122.011875 
L 107.03 122.011875 
L 125.03 122.011875 
" style="fill: none; stroke-dasharray: 7.4,3.2; stroke-dashoffset: 0; stroke: #000000; stroke-width: 2"/>
    </g>
    <g id="text_20">
     <!-- Mean -->
     <g transform="translate(139.43 128.311875) scale(0.18 -0.18)">
      <defs>
       <path id="Tahoma-4d" d="M 4459 0 
L 3841 0 
L 3841 4009 
L 2628 1281 
L 2253 1281 
L 1050 4009 
L 1050 0 
L 472 0 
L 472 4653 
L 1316 4653 
L 2478 2063 
L 3600 4653 
L 4459 4653 
L 4459 0 
z
" transform="scale(0.015625)"/>
      </defs>
      <use xlink:href="#Tahoma-4d"/>
      <use xlink:href="#Tahoma-65" x="77.050781"/>
      <use xlink:href="#Tahoma-61" x="129.6875"/>
      <use xlink:href="#Tahoma-6e" x="182.177734"/>
     </g>
    </g>
   </g>
  </g>
 </g>
 <defs>
  <clipPath id="p03f45fa23f">
   <rect x="72.83" y="19.44" width="987.73" height="347.56"/>
  </clipPath>
 </defs>
</svg>
